<svg width="135" height="91" viewBox="0 0 135 91" fill="none" xmlns="http://www.w3.org/2000/svg">
<path d="M67.5 56C53.135 56 41.5 44.365 41.5 30C41.5 15.635 53.135 4 67.5 4C81.865 4 93.5 15.635 93.5 30C93.5 44.365 81.865 56 67.5 56Z" fill="url(#paint0_linear_602_120)"/>
<path d="M62.3 21.8966C60.8917 23.0666 59.7867 24.6049 59.2017 26.3816C58.8767 27.3349 58.7033 28.3749 58.7033 29.4366V40.9849C58.7033 41.9816 57.9017 42.7833 56.905 42.7833C55.9083 42.7833 55.1067 41.9816 55.1067 40.9849V29.4366C55.1067 25.9266 56.4717 22.7199 58.6817 20.3583C60.1983 18.7333 62.1267 17.4766 64.2933 16.7833C65.4633 16.3933 66.655 17.2599 66.655 18.4733C66.655 19.2533 66.1567 19.9249 65.42 20.1849C64.2717 20.5316 63.21 21.1383 62.3 21.8966Z" fill="white"/>
<path d="M81.8 29.3499C81.8433 36.6516 75.9067 42.6966 68.605 42.7616C68.5617 42.7616 68.4967 42.7616 68.4533 42.7616C65.0517 42.7616 62.3 39.9883 62.3 36.5866V29.5233C62.3 29.5016 62.3 29.4583 62.3 29.4366C62.3 25.8833 65.3117 23.0233 68.9083 23.2833C71.9633 23.4999 74.4333 25.9916 74.6283 29.0466C74.7583 31.1483 73.8267 33.0549 72.3317 34.2466C71.1833 35.1783 69.45 34.3116 69.45 32.8383C69.45 32.2966 69.6883 31.7983 70.1 31.4516C70.7067 30.9533 71.075 30.1949 71.0533 29.3716C71.01 28.0283 69.9267 26.9233 68.5833 26.8583C67.0883 26.7933 65.8533 27.9849 65.8533 29.4583C65.8533 29.4799 65.8533 29.5233 65.8533 29.5449V36.4133C65.8533 37.9733 67.1317 39.2516 68.6917 39.2083C68.7133 39.2083 68.7567 39.2083 68.7783 39.2083C73.74 39.0349 77.835 35.0916 78.1817 30.1299C78.485 25.5149 75.5817 21.5283 71.465 20.1849C70.7283 19.9466 70.23 19.2749 70.23 18.5166V18.4516C70.23 17.2599 71.3783 16.3933 72.5267 16.7616C77.8783 18.4516 81.7567 23.4349 81.8 29.3499Z" fill="white"/>
<circle cx="67.5" cy="30" r="29" stroke="#35C2C1" stroke-width="2"/>
<g clip-path="url(#clip0_602_120)">
<path fill-rule="evenodd" clip-rule="evenodd" d="M26.9869 77.0822C26.8731 78.9019 25.4115 80.1753 24.5973 80.5871C24.5366 80.6178 24.4655 80.6173 24.4044 80.5873C23.1912 79.9922 22.4044 78.768 22.0441 77.3196C22.0245 77.2406 22.0147 77.1596 22.0131 77.0782L21.9105 72.157C21.9022 71.7588 21.6942 71.3915 21.357 71.1795L18.3673 69.3003C17.9911 69.0638 17.5143 69.0579 17.1324 69.285L13.9395 71.1835C13.5884 71.3922 13.3698 71.7673 13.3611 72.1757L13.2567 77.0822C13.2567 78.8905 11.5301 80.3391 10.8589 80.6036C10.8028 80.6257 10.7411 80.6173 10.6888 80.5875C9.20835 79.7464 8.55878 78.167 8.4038 77.0822L8.19327 72.1346C8.17685 71.7488 7.97332 71.3953 7.64796 71.1874L4.55702 69.2127C4.16141 68.9599 3.65381 68.9649 3.2632 69.2253L0.527072 71.0494C0.197787 71.2689 0 71.6384 0 72.0342V75.5018C0 75.8976 0.197787 76.2671 0.527072 76.4867L4.26108 78.976C6.39163 80.5147 6.62835 81.9351 6.62835 83.0004V87.2918C6.62835 87.7128 6.85195 88.1021 7.21559 88.3142L10.293 90.1094C10.6616 90.3243 11.1173 90.3243 11.4858 90.1094L14.5633 88.3142C14.9269 88.1021 15.1505 87.7128 15.1505 87.2918V82.4397C15.3516 80.5236 16.7765 79.2812 17.6239 78.7072C17.7028 78.6538 17.8061 78.6557 17.8834 78.7113C19.5892 79.9386 20.2977 81.6738 20.3585 82.4397V87.3115C20.3585 87.7218 20.571 88.1029 20.9202 88.3185L23.7783 90.0838C24.1504 90.3137 24.6189 90.3196 24.9967 90.0992L28.0705 88.3061C28.4267 88.0983 28.6491 87.7202 28.6575 87.3079L28.7623 82.1718C28.8784 80.1985 30.8159 78.9081 31.8954 78.1892L31.9581 78.1475L34.9344 76.3617C35.2909 76.1478 35.509 75.7625 35.509 75.3467V71.9525C35.509 71.5368 35.2909 71.1515 34.9344 70.9376L31.9862 69.1687C31.6056 68.9403 31.1293 68.9441 30.7524 69.1784L27.5456 71.1718C27.1982 71.3878 26.9869 71.7679 26.9869 72.177V77.0822ZM4.02447 70.6906L6.68962 72.2293V75.3068L4.02447 76.8455L1.35932 75.3068V72.2293L4.02447 70.6906ZM33.9257 72.2044L31.2605 70.6657L28.5954 72.2044V75.2818L31.2605 76.8206L33.9257 75.2818V72.2044Z" fill="#01C8CC"/>
<path d="M54.2688 82.4871C54.2688 83.0568 54.16 83.5945 53.9423 84.1002C53.7311 84.5995 53.4366 85.038 53.0589 85.4157C52.6877 85.787 52.2492 86.0814 51.7435 86.2991C51.2441 86.5103 50.7096 86.6159 50.1399 86.6159C49.6278 86.6159 49.1349 86.5263 48.6612 86.3471C48.1939 86.1679 47.7714 85.9054 47.3937 85.5597C47.016 85.9054 46.5903 86.1679 46.1166 86.3471C45.6429 86.5263 45.15 86.6159 44.6379 86.6159C44.0682 86.6159 43.5305 86.5103 43.0248 86.2991C42.5255 86.0814 42.087 85.787 41.7093 85.4157C41.338 85.038 41.0435 84.5995 40.8259 84.1002C40.6147 83.5945 40.509 83.0568 40.509 82.4871V72.6545H43.2648V82.4871C43.2648 82.6791 43.3 82.8615 43.3705 83.0344C43.4409 83.2008 43.5369 83.348 43.6585 83.4761C43.7865 83.5977 43.9338 83.6937 44.1002 83.7641C44.2666 83.8346 44.4459 83.8698 44.6379 83.8698C44.83 83.8698 45.0092 83.8346 45.1756 83.7641C45.3421 83.6937 45.4861 83.5977 45.6077 83.4761C45.7358 83.348 45.835 83.2008 45.9054 83.0344C45.9758 82.8615 46.011 82.6791 46.011 82.4871V72.6545H48.7668V82.4871C48.7668 82.6791 48.802 82.8615 48.8724 83.0344C48.9429 83.2008 49.0389 83.348 49.1605 83.4761C49.2885 83.5977 49.4358 83.6937 49.6022 83.7641C49.7686 83.8346 49.9479 83.8698 50.1399 83.8698C50.332 83.8698 50.5112 83.8346 50.6776 83.7641C50.8441 83.6937 50.9881 83.5977 51.1097 83.4761C51.2377 83.348 51.337 83.2008 51.4074 83.0344C51.4842 82.8615 51.5226 82.6791 51.5226 82.4871V72.6545H54.2688V82.4871Z" fill="#01C8CC"/>
<path d="M64.8407 80.9219V78.1661C64.8407 77.7885 64.7671 77.4332 64.6198 77.1003C64.479 76.761 64.2838 76.4666 64.0341 76.2169C63.7844 75.9673 63.49 75.772 63.1507 75.6312C62.8178 75.484 62.4626 75.4103 62.0849 75.4103C61.7072 75.4103 61.3487 75.484 61.0095 75.6312C60.6766 75.772 60.3853 75.9673 60.1357 76.2169C59.886 76.4666 59.6876 76.761 59.5403 77.1003C59.3995 77.4332 59.3291 77.7885 59.3291 78.1661V80.9219H64.8407ZM67.5965 86.4239H64.8407V83.6681H59.3291V86.4239H56.5829V78.1661C56.5829 77.4044 56.7269 76.6906 57.015 76.0249C57.3031 75.3527 57.6935 74.767 58.1864 74.2677C58.6857 73.7684 59.2683 73.3747 59.934 73.0866C60.6062 72.7986 61.3231 72.6545 62.0849 72.6545C62.8466 72.6545 63.5604 72.7986 64.2261 73.0866C64.8983 73.3747 65.484 73.7684 65.9833 74.2677C66.4826 74.767 66.8763 75.3527 67.1644 76.0249C67.4524 76.6906 67.5965 77.4044 67.5965 78.1661V86.4239Z" fill="#01C8CC"/>
<path d="M79.6279 86.4239H69.9874V72.6545H72.7432V83.6681H79.6279V86.4239Z" fill="#01C8CC"/>
<path d="M83.824 86.4239H81.0682V72.6545H83.824V86.4239Z" fill="#01C8CC"/>
<path d="M96.2202 86.4239H85.5619L91.4384 75.4103H85.5619V72.6545H96.2202L90.363 83.6681H96.2202V86.4239Z" fill="#01C8CC"/>
<path d="M106.034 80.9219V78.1661C106.034 77.7885 105.96 77.4332 105.813 77.1003C105.672 76.761 105.477 76.4666 105.227 76.2169C104.977 75.9673 104.683 75.772 104.344 75.6312C104.011 75.484 103.655 75.4103 103.278 75.4103C102.9 75.4103 102.542 75.484 102.202 75.6312C101.869 75.772 101.578 75.9673 101.329 76.2169C101.079 76.4666 100.88 76.761 100.733 77.1003C100.592 77.4332 100.522 77.7885 100.522 78.1661V80.9219H106.034ZM108.789 86.4239H106.034V83.6681H100.522V86.4239H97.7758V78.1661C97.7758 77.4044 97.9198 76.6906 98.2079 76.0249C98.4959 75.3527 98.8864 74.767 99.3793 74.2677C99.8786 73.7684 100.461 73.3747 101.127 73.0866C101.799 72.7986 102.516 72.6545 103.278 72.6545C104.04 72.6545 104.753 72.7986 105.419 73.0866C106.091 73.3747 106.677 73.7684 107.176 74.2677C107.676 74.767 108.069 75.3527 108.357 76.0249C108.645 76.6906 108.789 77.4044 108.789 78.1661V86.4239Z" fill="#01C8CC"/>
<path d="M122.213 79.5392C122.213 80.173 122.13 80.7843 121.963 81.3732C121.803 81.9557 121.573 82.5031 121.272 83.0152C120.971 83.5209 120.613 83.985 120.197 84.4075C119.781 84.8236 119.316 85.182 118.804 85.4829C118.292 85.7838 117.742 86.0174 117.153 86.1839C116.57 86.3439 115.962 86.4239 115.328 86.4239H111.18V72.6545H115.328C115.962 72.6545 116.57 72.7378 117.153 72.9042C117.742 73.0642 118.292 73.2947 118.804 73.5955C119.316 73.8964 119.781 74.2581 120.197 74.6806C120.613 75.0967 120.971 75.5608 121.272 76.0729C121.573 76.5786 121.803 77.1259 121.963 77.7148C122.13 78.2974 122.213 78.9055 122.213 79.5392ZM119.457 79.5392C119.457 78.9695 119.348 78.435 119.131 77.9357C118.92 77.4364 118.625 77.0011 118.247 76.6298C117.876 76.2521 117.438 75.9545 116.932 75.7368C116.433 75.5192 115.898 75.4103 115.328 75.4103H113.955V83.6681H115.328C115.898 83.6681 116.433 83.5625 116.932 83.3512C117.438 83.1336 117.876 82.8391 118.247 82.4679C118.625 82.0902 118.92 81.6517 119.131 81.1524C119.348 80.6467 119.457 80.1089 119.457 79.5392Z" fill="#01C8CC"/>
<path d="M132.151 80.9219V78.1661C132.151 77.7885 132.078 77.4332 131.93 77.1003C131.79 76.761 131.594 76.4666 131.345 76.2169C131.095 75.9673 130.8 75.772 130.461 75.6312C130.128 75.484 129.773 75.4103 129.395 75.4103C129.018 75.4103 128.659 75.484 128.32 75.6312C127.987 75.772 127.696 75.9673 127.446 76.2169C127.197 76.4666 126.998 76.761 126.851 77.1003C126.71 77.4332 126.64 77.7885 126.64 78.1661V80.9219H132.151ZM134.907 86.4239H132.151V83.6681H126.64V86.4239H123.893V78.1661C123.893 77.4044 124.037 76.6906 124.326 76.0249C124.614 75.3527 125.004 74.767 125.497 74.2677C125.996 73.7684 126.579 73.3747 127.245 73.0866C127.917 72.7986 128.634 72.6545 129.395 72.6545C130.157 72.6545 130.871 72.7986 131.537 73.0866C132.209 73.3747 132.795 73.7684 133.294 74.2677C133.793 74.767 134.187 75.3527 134.475 76.0249C134.763 76.6906 134.907 77.4044 134.907 78.1661V86.4239Z" fill="#01C8CC"/>
</g>
<defs>
<linearGradient id="paint0_linear_602_120" x1="41.5" y1="30" x2="93.5" y2="30" gradientUnits="userSpaceOnUse">
<stop stop-color="#00C3D4"/>
<stop offset="1" stop-color="#00D8B6"/>
</linearGradient>
<clipPath id="clip0_602_120">
<rect width="135" height="22" fill="white" transform="translate(0 69)"/>
</clipPath>
</defs>
</svg>
